{"accessors" : [{"bufferView" : 0, "byteOffset" : 0, "componentType" : 5123, "count" : 14400, "type" : "SCALAR", "max" : [12030], "min" : [0]}, {"bufferView" : 1, "byteOffset" : 0, "componentType" : 5126, "count" : 12031, "type" : "VEC3", "max" : [0.49974310398101807, 0.5, 0.498757004737854], "min" : [-0.49974310398101807, -0.5, -0.4987569749355316], "name" : "POSITION"}, {"bufferView" : 1, "byteOffset" : 12, "componentType" : 5126, "count" : 12031, "type" : "VEC2", "max" : [1.0000001192092896, 0.9795917272567749], "min" : [2.4031727718920592E-08, -0], "name" : "TEXCOORD_0"}, {"bufferView" : 0, "byteOffset" : 28800, "componentType" : 5123, "count" : 58800, "type" : "SCALAR", "max" : [48794], "min" : [0]}, {"bufferView" : 2, "byteOffset" : 0, "componentType" : 5126, "count" : 48795, "type" : "VEC3", "max" : [0.4999370574951172, 0.5, 0.4999370574951172], "min" : [-0.4999370574951172, -0.5, -0.4999370574951172], "name" : "POSITION"}, {"bufferView" : 2, "byteOffset" : 12, "componentType" : 5126, "count" : 48795, "type" : "VEC2", "max" : [1.3289439678192139, 0.9993600249290466], "min" : [-0.14903593063354492, -0.14350390434265137], "name" : "TEXCOORD_0"}], "asset" : {"generator" : "Aspose.3D 23.11.1", "version" : "2.0"}, "buffers" : [{"uri" : "data:application/octet-stream;base64,", "byteLength" : 1610412}], "bufferViews" : [{"buffer" : 0, "byteOffset" : 0, "byteLength" : 146400, "target" : 34963}, {"buffer" : 0, "byteOffset" : 146404, "byteLength" : 288000, "byteStride" : 20, "target" : 34962}, {"buffer" : 0, "byteOffset" : 434408, "byteLength" : 1176000, "byteStride" : 20, "target" : 34962}], "cameras" : [{"perspective" : {"aspectRatio" : 1.77777777777778, "yfov" : 0.43833943764363487, "zfar" : 11295.0176248175, "znear" : 0.011295017624817503}, "type" : "perspective", "name" : "cam1"}], "images" : [{"uri" : "/Users/ivemaker/Documents/Houdini Projects/Vorpal/planet_texture_by_thunorrad_dpap97.jpg"}], "materials" : [{"name" : "star", "pbrMetallicRoughness" : {"baseColorFactor" : [1, 1, 0, 1], "metallicFactor" : 1, "roughnessFactor" : 1}, "emissiveFactor" : [1, 1, 1], "alphaMode" : "OPAQUE", "doubleSided" : false}, {"name" : "principledshader1", "pbrMetallicRoughness" : {"baseColorFactor" : [1, 1, 1, 1], "baseColorTexture" : {"index" : 0, "texCoord" : 0}, "metallicFactor" : 1, "roughnessFactor" : 1}, "emissiveFactor" : [1, 1, 1], "alphaMode" : "OPAQUE", "doubleSided" : false}], "meshes" : [{"primitives" : [{"attributes" : {"POSITION" : 1, "TEXCOORD_0" : 2}, "indices" : 0, "material" : 0, "mode" : 4}], "name" : "star"}, {"primitives" : [{"attributes" : {"POSITION" : 4, "TEXCOORD_0" : 5}, "indices" : 3, "material" : 1, "mode" : 4}], "name" : "planet"}], "nodes" : [{"camera" : 0, "matrix" : [-0.9885280564794384, -0.07645395988434911, 0.13025771981340178, 0, -0.0753686148432315, 0.9970677187611506, 0.01324900377566672, 0, -0.13088870634855004, 0.003279668037674721, -0.9913916432611108, 0, 8.39791005138786, 0.48181309994713306, -0.47534751720882307, 1], "name" : "cam1"}, {"matrix" : [0.9999904807207345, 0, -0.004363309284746606, 0, 0, 1, 0, 0, 0.004363309284746606, 0, 0.9999904807207345, 0, -1.4903307714603402, 0, -0.17004173499002503, 1], "mesh" : 0, "name" : "star"}, {"matrix" : [0.9999619230641713, 0, -0.00872653549837397, 0, 0, 1, 0, 0, 0.00872653549837397, 0, 0.9999619230641713, 0, 1.4903307714603402, 0, 0.17004173499002503, 1], "mesh" : 1, "name" : "planet"}, {"children" : [1, 2], "matrix" : [1, 0, 7.401804915011886E-11, 0, 0, 1, 0, 0, -7.401804915011886E-11, 0, 1, 0, 1.5, 0, 1.8504512287529697E-10, 1], "name" : "box_object1"}], "samplers" : [{"magFilter" : 9729, "minFilter" : 9729, "wrapS" : 10497, "wrapT" : 10497}], "scene" : 0, "scenes" : [{"nodes" : [0, 3]}], "textures" : [{"sampler" : 0, "source" : 0, "name" : "principledshader1_texture1"}]}