<svg width="1438" height="1005" viewBox="0 0 1438 1005" fill="none" xmlns="http://www.w3.org/2000/svg">
<circle opacity="0.75" cx="120.477" cy="330.007" r="3.465" transform="rotate(-69 120.477 330.007)" fill="#AAF765"/>
<circle opacity="0.81" cx="597.8" cy="132.884" r="3.96" transform="rotate(-14 597.8 132.884)" fill="#AAF765"/>
<circle opacity="0.71" cx="1355.14" cy="154.15" r="5.665" transform="rotate(-5 1355.14 154.15)" fill="#AAF765"/>
<circle opacity="0.78" cx="370.001" cy="404.788" r="4.84" transform="rotate(-118 370.001 404.788)" fill="#AAF765"/>
<circle opacity="0.72" cx="530.917" cy="590.431" r="3.685" transform="rotate(57 530.917 590.431)" fill="#AAF765"/>
<circle opacity="0.78" cx="339.865" cy="723.494" r="4.07" transform="rotate(78 339.865 723.494)" fill="#AAF765"/>
<circle opacity="0.83" cx="1037.13" cy="786.654" r="5.115" transform="rotate(60 1037.13 786.654)" fill="#AAF765"/>
<circle opacity="0.77" cx="347.635" cy="198.263" r="5.15515" transform="rotate(40 347.635 198.263)" fill="#65C2F7"/>
<circle opacity="0.96" cx="505.657" cy="178.842" r="6.1182" transform="rotate(20 505.657 178.842)" fill="#65C2F7"/>
<circle opacity="0.91" cx="1419.76" cy="123.525" r="5.8916" transform="rotate(-174 1419.76 123.525)" fill="#65C2F7"/>
<circle opacity="0.86" cx="6.2276" cy="505.296" r="5.2118" transform="rotate(-100 6.2276 505.296)" fill="#65C2F7"/>
<circle opacity="0.77" cx="508.055" cy="364.97" r="4.3054" transform="rotate(-39 508.055 364.97)" fill="#65C2F7"/>
<circle opacity="0.82" cx="1397.09" cy="561.623" r="4.532" transform="rotate(-162 1397.09 561.623)" fill="#65C2F7"/>
<circle opacity="0.88" cx="280.329" cy="872.268" r="4.81525" transform="rotate(-115 280.329 872.268)" fill="#65C2F7"/>
<circle opacity="0.95" cx="784.018" cy="701.029" r="4.70195" transform="rotate(-4 784.018 701.029)" fill="#65C2F7"/>
<circle opacity="0.98" cx="1221.9" cy="968.653" r="6.5714" transform="rotate(-176 1221.9 968.653)" fill="#65C2F7"/>
<path opacity="0.95" d="M241.284 318.765L246.04 314.33C247.252 313.2 247.319 311.302 246.189 310.09L243.799 307.528C242.669 306.316 242.735 304.418 243.947 303.288L246.51 300.898C247.721 299.768 247.788 297.87 246.658 296.658L244.268 294.096C243.138 292.884 243.205 290.986 244.416 289.856L246.979 287.466C248.19 286.336 248.257 284.438 247.127 283.226L244.737 280.664C243.607 279.452 243.674 277.554 244.885 276.424L247.448 274.035C248.659 272.905 248.726 271.006 247.596 269.795L243.16 265.038" stroke="#36FF9F" stroke-width="5" stroke-linejoin="round"/>
<path opacity="0.88" d="M496.739 256.491L491.107 253.239C489.672 252.411 487.837 252.902 487.009 254.337L485.257 257.371C484.429 258.806 482.594 259.298 481.159 258.47L478.125 256.718C476.69 255.889 474.855 256.381 474.027 257.816L472.275 260.85C471.447 262.285 469.612 262.777 468.177 261.948L465.143 260.196C463.708 259.368 461.873 259.86 461.045 261.294L459.293 264.329C458.465 265.763 456.63 266.255 455.195 265.427L452.161 263.675C450.726 262.846 448.891 263.338 448.063 264.773L444.811 270.405" stroke="#36FF9F" stroke-width="5" stroke-linejoin="round"/>
<path opacity="0.88" d="M1345.64 220L1349.88 215.761C1351.05 214.59 1351.05 212.69 1349.88 211.519L1347.76 209.401C1346.59 208.23 1346.59 206.33 1347.76 205.159L1349.88 203.041C1351.05 201.87 1351.05 199.97 1349.88 198.799L1347.76 196.681C1346.59 195.51 1346.59 193.61 1347.76 192.439L1349.88 190.321C1351.05 189.15 1351.05 187.25 1349.88 186.079L1347.76 183.961C1346.59 182.79 1346.59 180.89 1347.76 179.719L1349.88 177.601C1351.05 176.43 1351.05 174.53 1349.88 173.359L1345.64 169.12" stroke="#36FF9F" stroke-width="5" stroke-linejoin="round"/>
<path d="M50.6669 443.583L57.7794 444.583C59.4201 444.813 60.9371 443.67 61.1677 442.03L61.7498 437.888C61.9804 436.247 63.4974 435.104 65.1381 435.335L69.2797 435.917C70.9205 436.147 72.4375 435.004 72.668 433.363L73.2501 429.222C73.4807 427.581 74.9977 426.438 76.6384 426.668L80.7801 427.251C82.4208 427.481 83.9378 426.338 84.1684 424.697L84.7505 420.556C84.9811 418.915 86.4981 417.772 88.1388 418.002L92.2804 418.584C93.9212 418.815 95.4382 417.672 95.6687 416.031L96.6683 408.919" stroke="#36FF9F" stroke-width="5" stroke-linejoin="round"/>
<path opacity="0.73" d="M666.155 447.667L663.43 443.916C662.456 442.575 660.58 442.278 659.239 443.252L657.915 444.214C656.575 445.188 654.699 444.891 653.725 443.55L652.763 442.226C651.789 440.886 649.913 440.589 648.572 441.562L647.248 442.525C645.908 443.498 644.032 443.201 643.058 441.861L642.096 440.537C641.122 439.196 639.246 438.899 637.905 439.873L636.581 440.835C635.241 441.809 633.365 441.512 632.391 440.171L631.429 438.847C630.455 437.507 628.579 437.21 627.238 438.184L623.487 440.909" stroke="#36FF9F" stroke-width="5" stroke-linejoin="round"/>
<path opacity="0.8" d="M306.503 970.264L305.078 964.092C304.705 962.478 303.094 961.471 301.48 961.844L298.231 962.594C296.617 962.967 295.006 961.96 294.633 960.346L293.884 957.097C293.511 955.483 291.9 954.476 290.286 954.849L287.037 955.599C285.423 955.972 283.812 954.965 283.439 953.351L282.689 950.102C282.317 948.488 280.706 947.481 279.091 947.854L275.843 948.604C274.229 948.977 272.618 947.97 272.245 946.356L271.495 943.108C271.122 941.493 269.511 940.487 267.897 940.859L261.726 942.284" stroke="#36FF9F" stroke-width="5" stroke-linejoin="round"/>
<path opacity="0.97" d="M594.214 724.916L597.788 724.35C599.424 724.091 600.541 722.554 600.282 720.917L600.185 720.307C599.926 718.67 601.042 717.133 602.679 716.874L603.289 716.777C604.926 716.518 606.042 714.981 605.783 713.345L605.686 712.734C605.427 711.098 606.544 709.561 608.18 709.302L608.791 709.205C610.428 708.946 611.544 707.409 611.285 705.773L611.188 705.162C610.929 703.525 612.045 701.989 613.682 701.729L614.293 701.633C615.929 701.373 617.046 699.837 616.787 698.2L616.22 694.626" stroke="#36FF9F" stroke-width="5" stroke-linejoin="round"/>
<path opacity="0.88" d="M972.489 926.861L973.148 924.008C973.511 922.433 972.529 920.861 970.954 920.497V920.497C969.378 920.134 968.396 918.562 968.76 916.986V916.986C969.124 915.411 968.141 913.839 966.566 913.475V913.475C964.991 913.112 964.008 911.54 964.372 909.964V909.964C964.736 908.389 963.754 906.817 962.178 906.454V906.454C960.603 906.09 959.621 904.518 959.984 902.943V902.943C960.348 901.367 959.366 899.795 957.791 899.432L954.938 898.773" stroke="#36FF9F" stroke-width="5" stroke-linejoin="round"/>
<path opacity="0.8" d="M158.698 77.6813L154.683 74.5446C153.377 73.5245 151.492 73.756 150.472 75.0616L149.182 76.7125C148.162 78.0181 146.276 78.2496 144.971 77.2295L143.32 75.9397C142.014 74.9197 140.129 75.1512 139.109 76.4568L137.819 78.1076C136.799 79.4132 134.914 79.6447 133.608 78.6247L131.957 77.3349C130.652 76.3148 128.766 76.5463 127.746 77.8519L126.457 79.5028C125.436 80.8084 123.551 81.0399 122.246 80.0198L120.595 78.73C119.289 77.71 117.404 77.9415 116.384 79.2471L113.247 83.262" stroke="#FCF882" stroke-width="5" stroke-linejoin="round"/>
<path d="M488.837 50.2339L486.529 53.4099C485.556 54.7503 485.853 56.6264 487.193 57.6003L487.942 58.1444C489.282 59.1182 489.58 60.9944 488.606 62.3348L488.062 63.0837C487.088 64.4241 487.385 66.3002 488.725 67.2741L489.474 67.8182C490.815 68.7921 491.112 70.6682 490.138 72.0086L489.594 72.7575C488.62 74.0979 488.917 75.974 490.258 76.9479L491.006 77.492C492.347 78.4659 492.644 80.342 491.67 81.6824L491.126 82.4313C490.152 83.7717 490.449 85.6478 491.79 86.6217L494.966 88.9292" stroke="#FCF882" stroke-width="5" stroke-linejoin="round"/>
<path opacity="0.81" d="M1331.45 126.078L1329.08 128.367C1327.89 129.518 1327.86 131.418 1329.01 132.609L1329.21 132.822C1330.36 134.014 1330.33 135.913 1329.14 137.064L1328.92 137.27C1327.73 138.421 1327.7 140.32 1328.85 141.512L1329.06 141.725C1330.21 142.917 1330.17 144.816 1328.98 145.967L1328.77 146.173C1327.58 147.324 1327.54 149.223 1328.7 150.415L1328.9 150.628C1330.05 151.819 1330.02 153.719 1328.83 154.87L1328.61 155.075C1327.42 156.226 1327.39 158.125 1328.54 159.317L1330.83 161.688" stroke="#FCF882" stroke-width="5" stroke-linejoin="round"/>
<path opacity="0.97" d="M452.159 473.028L450.878 466.437C450.562 464.811 448.987 463.749 447.361 464.065L443.715 464.773C442.088 465.09 440.514 464.027 440.198 462.401L439.489 458.755C439.173 457.129 437.598 456.067 435.972 456.383L432.326 457.092C430.7 457.408 429.125 456.345 428.809 454.719L428.1 451.073C427.784 449.447 426.209 448.385 424.583 448.701L420.937 449.41C419.311 449.726 417.736 448.663 417.42 447.037L416.711 443.391C416.395 441.765 414.82 440.703 413.194 441.019L406.603 442.3" stroke="#FCF882" stroke-width="5" stroke-linejoin="round"/>
<path opacity="0.89" d="M834.403 422.397L830.932 422.579C829.277 422.666 828.006 424.078 828.093 425.732L828.118 426.208C828.205 427.862 826.934 429.274 825.279 429.36L824.804 429.385C823.149 429.472 821.878 430.884 821.965 432.538L821.99 433.014C822.076 434.668 820.805 436.08 819.151 436.167L818.675 436.191C817.021 436.278 815.75 437.69 815.837 439.344L815.862 439.82C815.948 441.474 814.677 442.886 813.023 442.973L812.547 442.997C810.893 443.084 809.622 444.496 809.708 446.15L809.89 449.622" stroke="#FCF882" stroke-width="5" stroke-linejoin="round"/>
<path opacity="0.74" d="M1203.37 608.792L1208.97 612.157C1210.39 613.011 1212.23 612.551 1213.09 611.131L1214.91 608.102C1215.76 606.681 1217.6 606.222 1219.02 607.075L1222.05 608.895C1223.47 609.749 1225.32 609.289 1226.17 607.869L1227.99 604.84C1228.84 603.42 1230.69 602.96 1232.11 603.813L1235.14 605.633C1236.56 606.487 1238.4 606.027 1239.25 604.607L1241.07 601.578C1241.93 600.158 1243.77 599.698 1245.19 600.551L1248.22 602.372C1249.64 603.225 1251.48 602.765 1252.33 601.345L1255.7 595.744" stroke="#FCF882" stroke-width="5" stroke-linejoin="round"/>
<path opacity="0.74" d="M373.354 904.264L371.208 901.416C370.211 900.093 368.33 899.829 367.006 900.826L366.555 901.167C365.231 902.164 363.35 901.899 362.353 900.576L362.013 900.124C361.015 898.801 359.134 898.537 357.811 899.534L357.359 899.874C356.036 900.871 354.155 900.607 353.158 899.284L352.817 898.832C351.82 897.509 349.939 897.244 348.616 898.241L348.164 898.582C346.841 899.579 344.96 899.315 343.963 897.991L343.622 897.54C342.625 896.216 340.744 895.952 339.421 896.949L336.573 899.095" stroke="#FCF882" stroke-width="5" stroke-linejoin="round"/>
<path opacity="0.77" d="M834.387 853.798L840.068 855.979C841.614 856.573 843.35 855.8 843.943 854.253L845.049 851.374C845.642 849.827 847.378 849.054 848.925 849.648L851.804 850.753C853.351 851.347 855.086 850.575 855.68 849.028L856.785 846.148C857.379 844.602 859.114 843.829 860.661 844.423L863.541 845.528C865.087 846.122 866.823 845.349 867.416 843.802L868.522 840.923C869.115 839.376 870.851 838.603 872.398 839.197L875.277 840.303C876.824 840.896 878.559 840.124 879.153 838.577L881.333 832.897" stroke="#FCF882" stroke-width="5" stroke-linejoin="round"/>
<path opacity="0.71" d="M1076.77 919.06L1075.28 925.515C1074.91 927.129 1075.91 928.74 1077.53 929.113L1081.06 929.928C1082.67 930.301 1083.68 931.911 1083.31 933.526L1082.49 937.057C1082.12 938.671 1083.13 940.282 1084.74 940.655L1088.27 941.47C1089.89 941.843 1090.89 943.454 1090.52 945.068L1089.71 948.599C1089.33 950.214 1090.34 951.825 1091.95 952.197L1095.49 953.012C1097.1 953.385 1098.11 954.996 1097.73 956.61L1096.92 960.142C1096.55 961.756 1097.55 963.367 1099.17 963.739L1105.62 965.23" stroke="#FCF882" stroke-width="5" stroke-linejoin="round"/>
<path opacity="0.77" d="M248.213 146.765L241.482 155.077L237.649 145.092L248.213 146.765Z" fill="#9418E1"/>
<path opacity="0.88" d="M1224.36 137.033L1234.32 144.007L1223.3 149.146L1224.36 137.033Z" fill="#9418E1"/>
<path opacity="0.93" d="M86.9965 567.237L86.1022 575.746L79.1799 570.717L86.9965 567.237Z" fill="#9418E1"/>
<path opacity="0.83" d="M897.656 573.291L887.324 572.568L893.116 563.981L897.656 573.291Z" fill="#9418E1"/>
<path opacity="0.77" d="M1174.16 625.308L1164.88 622.993L1171.52 616.109L1174.16 625.308Z" fill="#9418E1"/>
<path opacity="0.96" d="M27.0323 687.522L19.7149 677.812L31.7832 676.33L27.0323 687.522Z" fill="#9418E1"/>
<path opacity="0.88" d="M652.181 688.21L639.693 685.783L648.039 676.181L652.181 688.21Z" fill="#9418E1"/>
<path opacity="0.88" d="M1201.71 744.847L1192.35 739.662L1201.52 734.153L1201.71 744.847Z" fill="#9418E1"/>
<path opacity="0.73" d="M219.808 216.864L214.944 225.288L210.081 216.864L219.808 216.864Z" fill="#18BDE1"/>
<path opacity="0.77" d="M788.864 271.616L793.019 280.947L782.861 279.879L788.864 271.616Z" fill="#18BDE1"/>
<path opacity="0.98" d="M1427.4 318.626L1438.64 322.94L1429.28 330.516L1427.4 318.626Z" fill="#18BDE1"/>
<path opacity="0.71" d="M206.454 655.936L203.114 648.773L210.988 649.462L206.454 655.936Z" fill="#18BDE1"/>
<path opacity="0.91" d="M537.459 364.088L545.724 360.234L544.929 369.319L537.459 364.088Z" fill="#18BDE1"/>
<path opacity="0.91" d="M962.97 459.295L970.732 458.752L967.321 465.747L962.97 459.295Z" fill="#18BDE1"/>
<path opacity="0.99" d="M171.455 676.338L178.342 673.272L177.554 680.769L171.455 676.338Z" fill="#18BDE1"/>
<path opacity="0.73" d="M557.562 968.484L564.152 975.804L554.519 977.851L557.562 968.484Z" fill="#18BDE1"/>
<path opacity="0.93" d="M1217.93 996.802L1213.4 1003.28L1210.06 996.113L1217.93 996.802Z" fill="#18BDE1"/>
<path opacity="0.85" d="M288.423 118.292L295.217 117.216L292.752 123.638L288.423 118.292Z" fill="#9418E1"/>
<path opacity="0.91" d="M796.513 2.11075L796.389 9.20805L790.305 5.55212L796.513 2.11075Z" fill="#9418E1"/>
<path opacity="0.77" d="M1361.96 335.53L1356.8 328.426L1365.53 327.508L1361.96 335.53Z" fill="#9418E1"/>
<path opacity="0.71" d="M156.09 539.976L155.605 534.436L160.646 536.786L156.09 539.976Z" fill="#9418E1"/>
<path opacity="0.88" d="M934.205 652.35L929.392 647.538L935.966 645.777L934.205 652.35Z" fill="#9418E1"/>
<path d="M1310.2 463.449L1306.56 467.942L1304.49 462.545L1310.2 463.449Z" fill="#9418E1"/>
<path opacity="0.98" d="M129.939 896.291L127.851 891.373L133.154 892.024L129.939 896.291Z" fill="#9418E1"/>
<path opacity="0.79" d="M684.682 762.641L688.945 759.544L689.495 764.784L684.682 762.641Z" fill="#9418E1"/>
<path opacity="0.99" d="M984.8 806.131L990.393 810.502L983.812 813.161L984.8 806.131Z" fill="#9418E1"/>
<path opacity="0.92" d="M55.1985 48.1104L57.5441 47.6544C58.8395 47.4026 59.6855 46.1484 59.4337 44.853V44.853C59.1819 43.5575 60.0279 42.3033 61.3233 42.0515V42.0515C62.6187 41.7997 63.4647 40.5454 63.2129 39.25V39.25C62.9611 37.9546 63.8072 36.7003 65.1026 36.4485V36.4485C66.398 36.1967 67.244 34.9424 66.9922 33.647V33.647C66.7404 32.3516 67.5864 31.0973 68.8818 30.8455V30.8455C70.1772 30.5937 71.0232 29.3395 70.7714 28.0441L70.3155 25.6985" stroke="#36FF9F" stroke-width="5" stroke-linejoin="round"/>
<path opacity="0.7" d="M550.479 325.148L553.868 324.792C555.516 324.619 556.711 323.143 556.538 321.495L556.495 321.089C556.322 319.441 557.518 317.965 559.165 317.792L559.571 317.749C561.219 317.576 562.414 316.1 562.241 314.452L562.198 314.046C562.025 312.399 563.221 310.922 564.868 310.749L565.274 310.707C566.922 310.533 568.117 309.057 567.944 307.409L567.902 307.004C567.728 305.356 568.924 303.88 570.572 303.706L570.977 303.664C572.625 303.491 573.821 302.014 573.647 300.367L573.291 296.977" stroke="#36FF9F" stroke-width="5" stroke-linejoin="round"/>
<path opacity="0.99" d="M1023.57 59.0668L1026.25 60.3176C1027.73 61.0084 1029.49 60.3675 1030.18 58.8861V58.8861C1030.87 57.4046 1032.64 56.7637 1034.12 57.4545V57.4545C1035.6 58.1453 1037.36 57.5044 1038.05 56.023V56.023C1038.74 54.5415 1040.5 53.9006 1041.98 54.5914V54.5914C1043.46 55.2822 1045.23 54.6413 1045.92 53.1598V53.1598C1046.61 51.6784 1048.37 51.0375 1049.85 51.7283V51.7283C1051.33 52.4191 1053.09 51.7781 1053.78 50.2967L1055.03 47.6143" stroke="#36FF9F" stroke-width="5" stroke-linejoin="round"/>
<path opacity="0.71" d="M457.504 670.711L459.063 669.774C459.924 669.256 460.203 668.139 459.685 667.278V667.278C459.168 666.416 459.447 665.299 460.308 664.781V664.781C461.169 664.264 461.448 663.146 460.93 662.285V662.285C460.413 661.424 460.691 660.306 461.553 659.788V659.788C462.414 659.271 462.693 658.153 462.175 657.292V657.292C461.658 656.431 461.936 655.313 462.798 654.796V654.796C463.659 654.278 463.937 653.161 463.42 652.299L462.483 650.74" stroke="#36FF9F" stroke-width="5" stroke-linejoin="round"/>
<path opacity="0.78" d="M822.617 548.919L821.516 550.434C820.908 551.272 821.093 552.443 821.93 553.051V553.051C822.767 553.66 822.953 554.831 822.345 555.668V555.668C821.737 556.506 821.922 557.677 822.759 558.285V558.285C823.596 558.894 823.782 560.065 823.174 560.902V560.902C822.565 561.74 822.751 562.911 823.588 563.519V563.519C824.425 564.128 824.611 565.299 824.003 566.136V566.136C823.394 566.973 823.58 568.145 824.417 568.753L825.933 569.855" stroke="#36FF9F" stroke-width="2" stroke-linejoin="round"/>
<path opacity="0.98" d="M1040.51 566.421L1041.71 568.134C1042.37 569.08 1043.68 569.31 1044.62 568.647V568.647C1045.57 567.985 1046.87 568.215 1047.54 569.161V569.161C1048.2 570.107 1049.5 570.337 1050.45 569.674V569.674C1051.39 569.012 1052.7 569.242 1053.36 570.188V570.188C1054.02 571.134 1055.33 571.364 1056.27 570.701V570.701C1057.22 570.039 1058.52 570.269 1059.18 571.215V571.215C1059.85 572.161 1061.15 572.39 1062.1 571.728L1063.81 570.529" stroke="#36FF9F" stroke-width="2" stroke-linejoin="round"/>
<path opacity="0.8" d="M420.801 697.804L421.837 700.649C422.404 702.206 424.138 703.004 425.695 702.437V702.437C427.252 701.871 428.992 702.682 429.558 704.239V704.239C430.125 705.796 431.864 706.607 433.421 706.04V706.04C434.978 705.473 436.718 706.284 437.284 707.841V707.841C437.851 709.398 439.591 710.209 441.147 709.643V709.643C442.704 709.076 444.444 709.887 445.01 711.444V711.444C445.577 713.001 447.303 713.817 448.86 713.25L451.706 712.215" stroke="#36FF9F" stroke-width="5" stroke-linejoin="round"/>
<path d="M589.134 753.001L590.9 753.901C591.875 754.398 593.069 754.01 593.566 753.034V753.034C594.063 752.059 595.256 751.671 596.232 752.168V752.168C597.207 752.665 598.401 752.277 598.898 751.302V751.302C599.395 750.326 600.588 749.939 601.564 750.436V750.436C602.539 750.933 603.733 750.545 604.23 749.569V749.569C604.727 748.594 605.92 748.206 606.896 748.703V748.703C607.871 749.2 609.065 748.812 609.562 747.837L610.462 746.071" stroke="#36FF9F" stroke-width="3" stroke-linejoin="round"/>
<path opacity="0.97" d="M1226.4 962.12L1223.97 961.091C1222.63 960.523 1221.09 961.147 1220.52 962.486V962.486C1219.95 963.825 1218.4 964.45 1217.06 963.882V963.882C1215.72 963.313 1214.18 963.938 1213.61 965.277V965.277C1213.04 966.616 1211.5 967.241 1210.16 966.672V966.672C1208.82 966.104 1207.27 966.729 1206.7 968.068V968.068C1206.13 969.407 1204.59 970.032 1203.25 969.463V969.463C1201.91 968.895 1200.36 969.519 1199.8 970.858L1198.77 973.283" stroke="#36FF9F" stroke-width="5" stroke-linejoin="round"/>
<circle opacity="0.82" cx="427.397" cy="158.754" r="5.94" transform="rotate(-146 427.397 158.754)" fill="#AAF765"/>
<circle opacity="0.7" cx="561.942" cy="136.789" r="5.676" transform="rotate(31 561.942 136.789)" fill="#AAF765"/>
<circle opacity="0.71" cx="1264.37" cy="89.2769" r="7.458" transform="rotate(32 1264.37 89.2769)" fill="#AAF765"/>
<circle opacity="0.95" cx="307.235" cy="495.647" r="5.742" transform="rotate(-72 307.235 495.647)" fill="#AAF765"/>
<circle opacity="0.81" cx="741.098" cy="582.098" r="7.194" transform="rotate(142 741.098 582.098)" fill="#AAF765"/>
<circle opacity="0.91" cx="1210.18" cy="331.385" r="5.412" transform="rotate(-174 1210.18 331.385)" fill="#AAF765"/>
<circle opacity="0.89" cx="37.7135" cy="918.211" r="5.61" transform="rotate(-115 37.7135 918.211)" fill="#AAF765"/>
<circle cx="906.212" cy="992.254" r="3.96" transform="rotate(10 906.212 992.254)" fill="#AAF765"/>
<circle opacity="0.88" cx="1136.05" cy="864.707" r="5.346" transform="rotate(-158 1136.05 864.707)" fill="#AAF765"/>
</svg>
